<mxfile host="Electron" modified="2023-12-07T01:15:47.165Z" agent="Mozilla/5.0 (Windows NT 10.0; Win64; x64) AppleWebKit/537.36 (KHTML, like Gecko) draw.io/22.1.2 Chrome/114.0.5735.289 Electron/25.9.4 Safari/537.36" etag="z7gLnmatXqrxmnaVYQCx" version="22.1.2" type="device">
  <diagram name="Page-1" id="dyV1vCTJHISNvgEBtLhY">
    <mxGraphModel dx="1886" dy="1714" grid="1" gridSize="10" guides="1" tooltips="1" connect="1" arrows="1" fold="1" page="1" pageScale="1" pageWidth="850" pageHeight="1100" math="0" shadow="0">
      <root>
        <mxCell id="0" />
        <mxCell id="1" parent="0" />
        <mxCell id="SgWpKH_g_rVidPouxBbm-1" value="" style="shape=or;whiteSpace=wrap;html=1;rotation=-90;" parent="1" vertex="1">
          <mxGeometry x="62.5" y="227.5" width="25" height="50" as="geometry" />
        </mxCell>
        <mxCell id="SgWpKH_g_rVidPouxBbm-2" value="" style="ellipse;whiteSpace=wrap;html=1;aspect=fixed;" parent="1" vertex="1">
          <mxGeometry x="60" y="220" width="30" height="30" as="geometry" />
        </mxCell>
        <mxCell id="SgWpKH_g_rVidPouxBbm-4" value="Admin" style="rounded=0;whiteSpace=wrap;html=1;" parent="1" vertex="1">
          <mxGeometry x="40" y="270" width="70" height="30" as="geometry" />
        </mxCell>
        <mxCell id="SgWpKH_g_rVidPouxBbm-8" style="edgeStyle=orthogonalEdgeStyle;rounded=0;orthogonalLoop=1;jettySize=auto;html=1;entryX=0;entryY=0.5;entryDx=0;entryDy=0;" parent="1" target="SgWpKH_g_rVidPouxBbm-6" edge="1">
          <mxGeometry relative="1" as="geometry">
            <mxPoint x="110" y="285" as="sourcePoint" />
          </mxGeometry>
        </mxCell>
        <mxCell id="SgWpKH_g_rVidPouxBbm-15" style="edgeStyle=orthogonalEdgeStyle;rounded=0;orthogonalLoop=1;jettySize=auto;html=1;entryX=0.5;entryY=1;entryDx=0;entryDy=0;" parent="1" source="SgWpKH_g_rVidPouxBbm-6" target="SgWpKH_g_rVidPouxBbm-12" edge="1">
          <mxGeometry relative="1" as="geometry" />
        </mxCell>
        <mxCell id="SgWpKH_g_rVidPouxBbm-16" value="include" style="edgeLabel;html=1;align=center;verticalAlign=middle;resizable=0;points=[];" parent="SgWpKH_g_rVidPouxBbm-15" vertex="1" connectable="0">
          <mxGeometry x="0.0267" relative="1" as="geometry">
            <mxPoint as="offset" />
          </mxGeometry>
        </mxCell>
        <mxCell id="SgWpKH_g_rVidPouxBbm-19" style="edgeStyle=orthogonalEdgeStyle;rounded=0;orthogonalLoop=1;jettySize=auto;html=1;entryX=0.5;entryY=1;entryDx=0;entryDy=0;" parent="1" source="SgWpKH_g_rVidPouxBbm-6" target="SgWpKH_g_rVidPouxBbm-17" edge="1">
          <mxGeometry relative="1" as="geometry" />
        </mxCell>
        <mxCell id="SgWpKH_g_rVidPouxBbm-31" style="edgeStyle=orthogonalEdgeStyle;rounded=0;orthogonalLoop=1;jettySize=auto;html=1;entryX=0.5;entryY=1;entryDx=0;entryDy=0;" parent="1" source="SgWpKH_g_rVidPouxBbm-6" target="SgWpKH_g_rVidPouxBbm-30" edge="1">
          <mxGeometry relative="1" as="geometry" />
        </mxCell>
        <mxCell id="SgWpKH_g_rVidPouxBbm-47" style="edgeStyle=orthogonalEdgeStyle;rounded=0;orthogonalLoop=1;jettySize=auto;html=1;" parent="1" source="SgWpKH_g_rVidPouxBbm-6" target="SgWpKH_g_rVidPouxBbm-46" edge="1">
          <mxGeometry relative="1" as="geometry" />
        </mxCell>
        <mxCell id="7XiUPh6KSyojpYnyb0MD-14" value="include" style="edgeLabel;html=1;align=center;verticalAlign=middle;resizable=0;points=[];" parent="SgWpKH_g_rVidPouxBbm-47" vertex="1" connectable="0">
          <mxGeometry x="0.0182" y="-1" relative="1" as="geometry">
            <mxPoint as="offset" />
          </mxGeometry>
        </mxCell>
        <mxCell id="SgWpKH_g_rVidPouxBbm-57" style="edgeStyle=orthogonalEdgeStyle;rounded=0;orthogonalLoop=1;jettySize=auto;html=1;" parent="1" source="SgWpKH_g_rVidPouxBbm-6" target="SgWpKH_g_rVidPouxBbm-54" edge="1">
          <mxGeometry relative="1" as="geometry" />
        </mxCell>
        <mxCell id="SgWpKH_g_rVidPouxBbm-67" value="include" style="edgeLabel;html=1;align=center;verticalAlign=middle;resizable=0;points=[];" parent="SgWpKH_g_rVidPouxBbm-57" vertex="1" connectable="0">
          <mxGeometry x="-0.8768" y="2" relative="1" as="geometry">
            <mxPoint x="37" y="2" as="offset" />
          </mxGeometry>
        </mxCell>
        <mxCell id="7XiUPh6KSyojpYnyb0MD-16" style="edgeStyle=orthogonalEdgeStyle;rounded=0;orthogonalLoop=1;jettySize=auto;html=1;" parent="1" source="SgWpKH_g_rVidPouxBbm-6" target="7XiUPh6KSyojpYnyb0MD-15" edge="1">
          <mxGeometry relative="1" as="geometry" />
        </mxCell>
        <mxCell id="7XiUPh6KSyojpYnyb0MD-17" value="include" style="edgeLabel;html=1;align=center;verticalAlign=middle;resizable=0;points=[];" parent="7XiUPh6KSyojpYnyb0MD-16" vertex="1" connectable="0">
          <mxGeometry x="-0.0815" y="2" relative="1" as="geometry">
            <mxPoint as="offset" />
          </mxGeometry>
        </mxCell>
        <mxCell id="7XiUPh6KSyojpYnyb0MD-33" style="edgeStyle=orthogonalEdgeStyle;rounded=0;orthogonalLoop=1;jettySize=auto;html=1;entryX=0.5;entryY=0;entryDx=0;entryDy=0;" parent="1" target="7XiUPh6KSyojpYnyb0MD-28" edge="1">
          <mxGeometry relative="1" as="geometry">
            <mxPoint x="365" y="285" as="sourcePoint" />
          </mxGeometry>
        </mxCell>
        <mxCell id="7XiUPh6KSyojpYnyb0MD-39" style="edgeStyle=orthogonalEdgeStyle;rounded=0;orthogonalLoop=1;jettySize=auto;html=1;entryX=0.5;entryY=0;entryDx=0;entryDy=0;" parent="1" target="7XiUPh6KSyojpYnyb0MD-37" edge="1">
          <mxGeometry relative="1" as="geometry">
            <mxPoint x="495" y="285" as="sourcePoint" />
          </mxGeometry>
        </mxCell>
        <mxCell id="SgWpKH_g_rVidPouxBbm-6" value="Đăng nhập" style="ellipse;whiteSpace=wrap;html=1;" parent="1" vertex="1">
          <mxGeometry x="170" y="260" width="100" height="50" as="geometry" />
        </mxCell>
        <mxCell id="SgWpKH_g_rVidPouxBbm-12" value="Quản lý tài khoản" style="ellipse;whiteSpace=wrap;html=1;" parent="1" vertex="1">
          <mxGeometry x="165" y="160" width="110" height="40" as="geometry" />
        </mxCell>
        <mxCell id="SgWpKH_g_rVidPouxBbm-22" style="edgeStyle=orthogonalEdgeStyle;rounded=0;orthogonalLoop=1;jettySize=auto;html=1;entryX=0.5;entryY=1;entryDx=0;entryDy=0;dashed=1;" parent="1" source="SgWpKH_g_rVidPouxBbm-17" target="SgWpKH_g_rVidPouxBbm-21" edge="1">
          <mxGeometry relative="1" as="geometry" />
        </mxCell>
        <mxCell id="SgWpKH_g_rVidPouxBbm-23" value="extend" style="edgeLabel;html=1;align=center;verticalAlign=middle;resizable=0;points=[];" parent="SgWpKH_g_rVidPouxBbm-22" vertex="1" connectable="0">
          <mxGeometry x="0.048" y="-4" relative="1" as="geometry">
            <mxPoint as="offset" />
          </mxGeometry>
        </mxCell>
        <mxCell id="SgWpKH_g_rVidPouxBbm-28" style="edgeStyle=orthogonalEdgeStyle;rounded=0;orthogonalLoop=1;jettySize=auto;html=1;dashed=1;" parent="1" source="SgWpKH_g_rVidPouxBbm-17" target="SgWpKH_g_rVidPouxBbm-27" edge="1">
          <mxGeometry relative="1" as="geometry">
            <Array as="points">
              <mxPoint x="365" y="110" />
              <mxPoint x="200" y="110" />
            </Array>
          </mxGeometry>
        </mxCell>
        <mxCell id="SgWpKH_g_rVidPouxBbm-29" value="extend" style="edgeLabel;html=1;align=center;verticalAlign=middle;resizable=0;points=[];" parent="SgWpKH_g_rVidPouxBbm-28" vertex="1" connectable="0">
          <mxGeometry x="0.2205" y="2" relative="1" as="geometry">
            <mxPoint as="offset" />
          </mxGeometry>
        </mxCell>
        <mxCell id="7XiUPh6KSyojpYnyb0MD-9" style="edgeStyle=orthogonalEdgeStyle;rounded=0;orthogonalLoop=1;jettySize=auto;html=1;entryX=0.5;entryY=1;entryDx=0;entryDy=0;dashed=1;" parent="1" source="SgWpKH_g_rVidPouxBbm-17" target="7XiUPh6KSyojpYnyb0MD-8" edge="1">
          <mxGeometry relative="1" as="geometry" />
        </mxCell>
        <mxCell id="7XiUPh6KSyojpYnyb0MD-10" value="extend" style="edgeLabel;html=1;align=center;verticalAlign=middle;resizable=0;points=[];" parent="7XiUPh6KSyojpYnyb0MD-9" vertex="1" connectable="0">
          <mxGeometry x="0.3053" y="1" relative="1" as="geometry">
            <mxPoint as="offset" />
          </mxGeometry>
        </mxCell>
        <mxCell id="SgWpKH_g_rVidPouxBbm-17" value="Quản lý user/ seller" style="ellipse;whiteSpace=wrap;html=1;" parent="1" vertex="1">
          <mxGeometry x="310" y="130" width="110" height="40" as="geometry" />
        </mxCell>
        <mxCell id="SgWpKH_g_rVidPouxBbm-21" value="Ban/Gỡ ban" style="ellipse;whiteSpace=wrap;html=1;" parent="1" vertex="1">
          <mxGeometry x="270" width="110" height="40" as="geometry" />
        </mxCell>
        <mxCell id="SgWpKH_g_rVidPouxBbm-27" value="Cấp quyền" style="ellipse;whiteSpace=wrap;html=1;" parent="1" vertex="1">
          <mxGeometry x="150" y="20" width="110" height="40" as="geometry" />
        </mxCell>
        <mxCell id="SgWpKH_g_rVidPouxBbm-41" style="edgeStyle=orthogonalEdgeStyle;rounded=0;orthogonalLoop=1;jettySize=auto;html=1;dashed=1;" parent="1" source="SgWpKH_g_rVidPouxBbm-30" target="SgWpKH_g_rVidPouxBbm-40" edge="1">
          <mxGeometry relative="1" as="geometry" />
        </mxCell>
        <mxCell id="7XiUPh6KSyojpYnyb0MD-13" value="extend" style="edgeLabel;html=1;align=center;verticalAlign=middle;resizable=0;points=[];" parent="SgWpKH_g_rVidPouxBbm-41" vertex="1" connectable="0">
          <mxGeometry x="-0.4724" y="2" relative="1" as="geometry">
            <mxPoint as="offset" />
          </mxGeometry>
        </mxCell>
        <mxCell id="7XiUPh6KSyojpYnyb0MD-11" style="edgeStyle=orthogonalEdgeStyle;rounded=0;orthogonalLoop=1;jettySize=auto;html=1;dashed=1;" parent="1" source="SgWpKH_g_rVidPouxBbm-30" target="7XiUPh6KSyojpYnyb0MD-7" edge="1">
          <mxGeometry relative="1" as="geometry" />
        </mxCell>
        <mxCell id="7XiUPh6KSyojpYnyb0MD-12" value="extend" style="edgeLabel;html=1;align=center;verticalAlign=middle;resizable=0;points=[];" parent="7XiUPh6KSyojpYnyb0MD-11" vertex="1" connectable="0">
          <mxGeometry x="-0.1061" y="-2" relative="1" as="geometry">
            <mxPoint as="offset" />
          </mxGeometry>
        </mxCell>
        <mxCell id="7XiUPh6KSyojpYnyb0MD-22" style="edgeStyle=orthogonalEdgeStyle;rounded=0;orthogonalLoop=1;jettySize=auto;html=1;entryX=0.5;entryY=1;entryDx=0;entryDy=0;dashed=1;" parent="1" target="7XiUPh6KSyojpYnyb0MD-21" edge="1">
          <mxGeometry relative="1" as="geometry">
            <mxPoint x="600" y="208" as="sourcePoint" />
          </mxGeometry>
        </mxCell>
        <mxCell id="SgWpKH_g_rVidPouxBbm-30" value="Quản lý sản phẩm" style="ellipse;whiteSpace=wrap;html=1;" parent="1" vertex="1">
          <mxGeometry x="410" y="187.5" width="110" height="40" as="geometry" />
        </mxCell>
        <mxCell id="SgWpKH_g_rVidPouxBbm-40" value="Thông kê" style="ellipse;whiteSpace=wrap;html=1;" parent="1" vertex="1">
          <mxGeometry x="540" y="70" width="110" height="40" as="geometry" />
        </mxCell>
        <mxCell id="SgWpKH_g_rVidPouxBbm-56" style="edgeStyle=orthogonalEdgeStyle;rounded=0;orthogonalLoop=1;jettySize=auto;html=1;entryX=0;entryY=0.5;entryDx=0;entryDy=0;dashed=1;" parent="1" source="SgWpKH_g_rVidPouxBbm-42" target="SgWpKH_g_rVidPouxBbm-44" edge="1">
          <mxGeometry relative="1" as="geometry" />
        </mxCell>
        <mxCell id="7XiUPh6KSyojpYnyb0MD-5" value="extend" style="edgeLabel;html=1;align=center;verticalAlign=middle;resizable=0;points=[];" parent="SgWpKH_g_rVidPouxBbm-56" vertex="1" connectable="0">
          <mxGeometry x="-0.1771" y="1" relative="1" as="geometry">
            <mxPoint as="offset" />
          </mxGeometry>
        </mxCell>
        <mxCell id="SgWpKH_g_rVidPouxBbm-42" value="Quản lý danh mục" style="ellipse;whiteSpace=wrap;html=1;" parent="1" vertex="1">
          <mxGeometry x="680" y="265" width="110" height="40" as="geometry" />
        </mxCell>
        <mxCell id="SgWpKH_g_rVidPouxBbm-44" value="CRUD" style="ellipse;whiteSpace=wrap;html=1;" parent="1" vertex="1">
          <mxGeometry x="860" y="265" width="110" height="40" as="geometry" />
        </mxCell>
        <mxCell id="SgWpKH_g_rVidPouxBbm-49" style="edgeStyle=orthogonalEdgeStyle;rounded=0;orthogonalLoop=1;jettySize=auto;html=1;dashed=1;" parent="1" source="SgWpKH_g_rVidPouxBbm-46" target="SgWpKH_g_rVidPouxBbm-48" edge="1">
          <mxGeometry relative="1" as="geometry" />
        </mxCell>
        <mxCell id="7XiUPh6KSyojpYnyb0MD-3" value="extend" style="edgeLabel;html=1;align=center;verticalAlign=middle;resizable=0;points=[];" parent="SgWpKH_g_rVidPouxBbm-49" vertex="1" connectable="0">
          <mxGeometry x="-0.2109" relative="1" as="geometry">
            <mxPoint as="offset" />
          </mxGeometry>
        </mxCell>
        <mxCell id="SgWpKH_g_rVidPouxBbm-53" style="edgeStyle=orthogonalEdgeStyle;rounded=0;orthogonalLoop=1;jettySize=auto;html=1;dashed=1;" parent="1" source="SgWpKH_g_rVidPouxBbm-46" target="SgWpKH_g_rVidPouxBbm-52" edge="1">
          <mxGeometry relative="1" as="geometry" />
        </mxCell>
        <mxCell id="7XiUPh6KSyojpYnyb0MD-4" value="extend" style="edgeLabel;html=1;align=center;verticalAlign=middle;resizable=0;points=[];" parent="SgWpKH_g_rVidPouxBbm-53" vertex="1" connectable="0">
          <mxGeometry x="-0.1627" y="1" relative="1" as="geometry">
            <mxPoint as="offset" />
          </mxGeometry>
        </mxCell>
        <mxCell id="SgWpKH_g_rVidPouxBbm-46" value="Quản lý thông tin web" style="ellipse;whiteSpace=wrap;html=1;" parent="1" vertex="1">
          <mxGeometry x="50" y="370" width="130" height="50" as="geometry" />
        </mxCell>
        <mxCell id="SgWpKH_g_rVidPouxBbm-48" value="Bật / tắt layout" style="ellipse;whiteSpace=wrap;html=1;" parent="1" vertex="1">
          <mxGeometry x="-120" y="320" width="130" height="50" as="geometry" />
        </mxCell>
        <mxCell id="SgWpKH_g_rVidPouxBbm-52" value="CRUD" style="ellipse;whiteSpace=wrap;html=1;" parent="1" vertex="1">
          <mxGeometry x="-120" y="410" width="130" height="50" as="geometry" />
        </mxCell>
        <mxCell id="SgWpKH_g_rVidPouxBbm-59" style="edgeStyle=orthogonalEdgeStyle;rounded=0;orthogonalLoop=1;jettySize=auto;html=1;dashed=1;" parent="1" source="SgWpKH_g_rVidPouxBbm-54" target="SgWpKH_g_rVidPouxBbm-58" edge="1">
          <mxGeometry relative="1" as="geometry" />
        </mxCell>
        <mxCell id="SgWpKH_g_rVidPouxBbm-63" value="extend" style="edgeLabel;html=1;align=center;verticalAlign=middle;resizable=0;points=[];" parent="SgWpKH_g_rVidPouxBbm-59" vertex="1" connectable="0">
          <mxGeometry x="-0.0044" y="1" relative="1" as="geometry">
            <mxPoint as="offset" />
          </mxGeometry>
        </mxCell>
        <mxCell id="SgWpKH_g_rVidPouxBbm-61" style="edgeStyle=orthogonalEdgeStyle;rounded=0;orthogonalLoop=1;jettySize=auto;html=1;entryX=0.5;entryY=0;entryDx=0;entryDy=0;dashed=1;" parent="1" source="SgWpKH_g_rVidPouxBbm-54" target="SgWpKH_g_rVidPouxBbm-60" edge="1">
          <mxGeometry relative="1" as="geometry" />
        </mxCell>
        <mxCell id="SgWpKH_g_rVidPouxBbm-62" value="extend" style="edgeLabel;html=1;align=center;verticalAlign=middle;resizable=0;points=[];" parent="SgWpKH_g_rVidPouxBbm-61" vertex="1" connectable="0">
          <mxGeometry x="-0.2693" y="2" relative="1" as="geometry">
            <mxPoint as="offset" />
          </mxGeometry>
        </mxCell>
        <mxCell id="SgWpKH_g_rVidPouxBbm-54" value="Quản lý order" style="ellipse;whiteSpace=wrap;html=1;" parent="1" vertex="1">
          <mxGeometry x="580" y="330" width="130" height="50" as="geometry" />
        </mxCell>
        <mxCell id="SgWpKH_g_rVidPouxBbm-58" value="Thực hiện order" style="ellipse;whiteSpace=wrap;html=1;" parent="1" vertex="1">
          <mxGeometry x="740" y="400" width="130" height="50" as="geometry" />
        </mxCell>
        <mxCell id="SgWpKH_g_rVidPouxBbm-60" value="Theo dõi order" style="ellipse;whiteSpace=wrap;html=1;" parent="1" vertex="1">
          <mxGeometry x="580" y="430" width="130" height="50" as="geometry" />
        </mxCell>
        <mxCell id="SgWpKH_g_rVidPouxBbm-68" value="" style="shape=or;whiteSpace=wrap;html=1;rotation=-90;" parent="1" vertex="1">
          <mxGeometry x="-127.5" y="847.5" width="25" height="50" as="geometry" />
        </mxCell>
        <mxCell id="SgWpKH_g_rVidPouxBbm-69" value="" style="ellipse;whiteSpace=wrap;html=1;aspect=fixed;" parent="1" vertex="1">
          <mxGeometry x="-130" y="840" width="30" height="30" as="geometry" />
        </mxCell>
        <mxCell id="SgWpKH_g_rVidPouxBbm-113" style="edgeStyle=orthogonalEdgeStyle;rounded=0;orthogonalLoop=1;jettySize=auto;html=1;entryX=0;entryY=0.5;entryDx=0;entryDy=0;dashed=1;" parent="1" source="SgWpKH_g_rVidPouxBbm-70" target="SgWpKH_g_rVidPouxBbm-112" edge="1">
          <mxGeometry relative="1" as="geometry" />
        </mxCell>
        <mxCell id="SgWpKH_g_rVidPouxBbm-120" style="edgeStyle=orthogonalEdgeStyle;rounded=0;orthogonalLoop=1;jettySize=auto;html=1;entryX=0.5;entryY=0;entryDx=0;entryDy=0;dashed=1;" parent="1" source="SgWpKH_g_rVidPouxBbm-70" target="SgWpKH_g_rVidPouxBbm-119" edge="1">
          <mxGeometry relative="1" as="geometry" />
        </mxCell>
        <mxCell id="SgWpKH_g_rVidPouxBbm-126" style="edgeStyle=orthogonalEdgeStyle;rounded=0;orthogonalLoop=1;jettySize=auto;html=1;entryX=0.5;entryY=0;entryDx=0;entryDy=0;" parent="1" source="SgWpKH_g_rVidPouxBbm-70" target="SgWpKH_g_rVidPouxBbm-125" edge="1">
          <mxGeometry relative="1" as="geometry" />
        </mxCell>
        <mxCell id="SgWpKH_g_rVidPouxBbm-129" style="edgeStyle=orthogonalEdgeStyle;rounded=0;orthogonalLoop=1;jettySize=auto;html=1;entryX=0.5;entryY=0;entryDx=0;entryDy=0;dashed=1;" parent="1" source="SgWpKH_g_rVidPouxBbm-70" target="SgWpKH_g_rVidPouxBbm-128" edge="1">
          <mxGeometry relative="1" as="geometry" />
        </mxCell>
        <mxCell id="7XiUPh6KSyojpYnyb0MD-47" value="extend" style="edgeLabel;html=1;align=center;verticalAlign=middle;resizable=0;points=[];" parent="SgWpKH_g_rVidPouxBbm-129" vertex="1" connectable="0">
          <mxGeometry x="-0.6199" y="-1" relative="1" as="geometry">
            <mxPoint as="offset" />
          </mxGeometry>
        </mxCell>
        <mxCell id="7XiUPh6KSyojpYnyb0MD-123" style="edgeStyle=orthogonalEdgeStyle;rounded=0;orthogonalLoop=1;jettySize=auto;html=1;entryX=1;entryY=1;entryDx=0;entryDy=0;dashed=1;" parent="1" source="SgWpKH_g_rVidPouxBbm-70" target="7XiUPh6KSyojpYnyb0MD-121" edge="1">
          <mxGeometry relative="1" as="geometry" />
        </mxCell>
        <mxCell id="SgWpKH_g_rVidPouxBbm-70" value="User" style="rounded=0;whiteSpace=wrap;html=1;" parent="1" vertex="1">
          <mxGeometry x="-150" y="890" width="70" height="30" as="geometry" />
        </mxCell>
        <mxCell id="SgWpKH_g_rVidPouxBbm-71" style="edgeStyle=orthogonalEdgeStyle;rounded=0;orthogonalLoop=1;jettySize=auto;html=1;entryX=0;entryY=0.5;entryDx=0;entryDy=0;" parent="1" target="SgWpKH_g_rVidPouxBbm-80" edge="1">
          <mxGeometry relative="1" as="geometry">
            <mxPoint x="100" y="905" as="sourcePoint" />
          </mxGeometry>
        </mxCell>
        <mxCell id="SgWpKH_g_rVidPouxBbm-72" style="edgeStyle=orthogonalEdgeStyle;rounded=0;orthogonalLoop=1;jettySize=auto;html=1;entryX=0.5;entryY=1;entryDx=0;entryDy=0;" parent="1" source="SgWpKH_g_rVidPouxBbm-80" target="SgWpKH_g_rVidPouxBbm-81" edge="1">
          <mxGeometry relative="1" as="geometry" />
        </mxCell>
        <mxCell id="SgWpKH_g_rVidPouxBbm-73" value="include" style="edgeLabel;html=1;align=center;verticalAlign=middle;resizable=0;points=[];" parent="SgWpKH_g_rVidPouxBbm-72" vertex="1" connectable="0">
          <mxGeometry x="0.0267" relative="1" as="geometry">
            <mxPoint as="offset" />
          </mxGeometry>
        </mxCell>
        <mxCell id="SgWpKH_g_rVidPouxBbm-80" value="Đăng nhập" style="ellipse;whiteSpace=wrap;html=1;" parent="1" vertex="1">
          <mxGeometry x="160" y="880" width="100" height="50" as="geometry" />
        </mxCell>
        <mxCell id="SgWpKH_g_rVidPouxBbm-118" style="edgeStyle=orthogonalEdgeStyle;rounded=0;orthogonalLoop=1;jettySize=auto;html=1;dashed=1;" parent="1" source="SgWpKH_g_rVidPouxBbm-81" target="SgWpKH_g_rVidPouxBbm-117" edge="1">
          <mxGeometry relative="1" as="geometry" />
        </mxCell>
        <mxCell id="7XiUPh6KSyojpYnyb0MD-42" value="extend" style="edgeLabel;html=1;align=center;verticalAlign=middle;resizable=0;points=[];" parent="SgWpKH_g_rVidPouxBbm-118" vertex="1" connectable="0">
          <mxGeometry x="-0.0059" y="-4" relative="1" as="geometry">
            <mxPoint as="offset" />
          </mxGeometry>
        </mxCell>
        <mxCell id="SgWpKH_g_rVidPouxBbm-81" value="Quản lý tài khoản" style="ellipse;whiteSpace=wrap;html=1;" parent="1" vertex="1">
          <mxGeometry x="155" y="760" width="110" height="40" as="geometry" />
        </mxCell>
        <mxCell id="SgWpKH_g_rVidPouxBbm-112" value="Đăng ký" style="ellipse;whiteSpace=wrap;html=1;" parent="1" vertex="1">
          <mxGeometry x="10" y="880" width="100" height="50" as="geometry" />
        </mxCell>
        <mxCell id="SgWpKH_g_rVidPouxBbm-114" value="Quên mật khẩu" style="ellipse;whiteSpace=wrap;html=1;" parent="1" vertex="1">
          <mxGeometry x="10" y="770" width="100" height="50" as="geometry" />
        </mxCell>
        <mxCell id="SgWpKH_g_rVidPouxBbm-117" value="CURD" style="ellipse;whiteSpace=wrap;html=1;" parent="1" vertex="1">
          <mxGeometry x="155" y="680" width="110" height="40" as="geometry" />
        </mxCell>
        <mxCell id="SgWpKH_g_rVidPouxBbm-122" style="edgeStyle=orthogonalEdgeStyle;rounded=0;orthogonalLoop=1;jettySize=auto;html=1;entryX=0.5;entryY=0;entryDx=0;entryDy=0;" parent="1" source="SgWpKH_g_rVidPouxBbm-119" target="SgWpKH_g_rVidPouxBbm-121" edge="1">
          <mxGeometry relative="1" as="geometry" />
        </mxCell>
        <mxCell id="7XiUPh6KSyojpYnyb0MD-46" value="extend" style="edgeLabel;html=1;align=center;verticalAlign=middle;resizable=0;points=[];" parent="SgWpKH_g_rVidPouxBbm-122" vertex="1" connectable="0">
          <mxGeometry x="-0.1227" relative="1" as="geometry">
            <mxPoint as="offset" />
          </mxGeometry>
        </mxCell>
        <mxCell id="SgWpKH_g_rVidPouxBbm-119" value="Tìm kiếm sản phẩm" style="ellipse;whiteSpace=wrap;html=1;" parent="1" vertex="1">
          <mxGeometry x="-340" y="970" width="120" height="50" as="geometry" />
        </mxCell>
        <mxCell id="SgWpKH_g_rVidPouxBbm-121" value="Sắp xếp sản phẩm" style="ellipse;whiteSpace=wrap;html=1;" parent="1" vertex="1">
          <mxGeometry x="-340" y="1090" width="120" height="50" as="geometry" />
        </mxCell>
        <mxCell id="SgWpKH_g_rVidPouxBbm-130" style="edgeStyle=orthogonalEdgeStyle;rounded=0;orthogonalLoop=1;jettySize=auto;html=1;entryX=0.5;entryY=0;entryDx=0;entryDy=0;dashed=1;" parent="1" source="SgWpKH_g_rVidPouxBbm-125" target="SgWpKH_g_rVidPouxBbm-127" edge="1">
          <mxGeometry relative="1" as="geometry" />
        </mxCell>
        <mxCell id="7XiUPh6KSyojpYnyb0MD-45" value="extend" style="edgeLabel;html=1;align=center;verticalAlign=middle;resizable=0;points=[];" parent="SgWpKH_g_rVidPouxBbm-130" vertex="1" connectable="0">
          <mxGeometry x="-0.2529" relative="1" as="geometry">
            <mxPoint as="offset" />
          </mxGeometry>
        </mxCell>
        <mxCell id="SgWpKH_g_rVidPouxBbm-132" style="edgeStyle=orthogonalEdgeStyle;rounded=0;orthogonalLoop=1;jettySize=auto;html=1;dashed=1;" parent="1" source="SgWpKH_g_rVidPouxBbm-125" target="SgWpKH_g_rVidPouxBbm-131" edge="1">
          <mxGeometry relative="1" as="geometry" />
        </mxCell>
        <mxCell id="7XiUPh6KSyojpYnyb0MD-44" value="extend" style="edgeLabel;html=1;align=center;verticalAlign=middle;resizable=0;points=[];" parent="SgWpKH_g_rVidPouxBbm-132" vertex="1" connectable="0">
          <mxGeometry x="0.2957" relative="1" as="geometry">
            <mxPoint as="offset" />
          </mxGeometry>
        </mxCell>
        <mxCell id="SgWpKH_g_rVidPouxBbm-125" value="Xem danh sách sản phẩm" style="ellipse;whiteSpace=wrap;html=1;" parent="1" vertex="1">
          <mxGeometry x="-175" y="970" width="120" height="50" as="geometry" />
        </mxCell>
        <mxCell id="7XiUPh6KSyojpYnyb0MD-41" style="edgeStyle=orthogonalEdgeStyle;rounded=0;orthogonalLoop=1;jettySize=auto;html=1;entryX=0.5;entryY=1;entryDx=0;entryDy=0;dashed=1;" parent="1" source="SgWpKH_g_rVidPouxBbm-127" target="SgWpKH_g_rVidPouxBbm-131" edge="1">
          <mxGeometry relative="1" as="geometry" />
        </mxCell>
        <mxCell id="7XiUPh6KSyojpYnyb0MD-43" value="extend" style="edgeLabel;html=1;align=center;verticalAlign=middle;resizable=0;points=[];" parent="7XiUPh6KSyojpYnyb0MD-41" vertex="1" connectable="0">
          <mxGeometry x="-0.2268" y="3" relative="1" as="geometry">
            <mxPoint as="offset" />
          </mxGeometry>
        </mxCell>
        <mxCell id="SgWpKH_g_rVidPouxBbm-127" value="Xem chi tiết sản phẩm" style="ellipse;whiteSpace=wrap;html=1;" parent="1" vertex="1">
          <mxGeometry x="-175" y="1140" width="120" height="50" as="geometry" />
        </mxCell>
        <mxCell id="SgWpKH_g_rVidPouxBbm-128" value="Gửi ý kiến đóng góp" style="ellipse;whiteSpace=wrap;html=1;" parent="1" vertex="1">
          <mxGeometry x="-500" y="970" width="120" height="50" as="geometry" />
        </mxCell>
        <mxCell id="SgWpKH_g_rVidPouxBbm-131" value="Thêm giỏ hàng" style="ellipse;whiteSpace=wrap;html=1;" parent="1" vertex="1">
          <mxGeometry x="-50" y="1080" width="120" height="50" as="geometry" />
        </mxCell>
        <mxCell id="SgWpKH_g_rVidPouxBbm-134" value="include" style="endArrow=open;endSize=12;dashed=1;html=1;rounded=0;exitX=0.5;exitY=1;exitDx=0;exitDy=0;entryX=0.781;entryY=0.049;entryDx=0;entryDy=0;entryPerimeter=0;" parent="1" source="SgWpKH_g_rVidPouxBbm-80" target="SgWpKH_g_rVidPouxBbm-131" edge="1">
          <mxGeometry width="160" relative="1" as="geometry">
            <mxPoint x="-70" y="1100" as="sourcePoint" />
            <mxPoint x="90" y="1100" as="targetPoint" />
          </mxGeometry>
        </mxCell>
        <mxCell id="SgWpKH_g_rVidPouxBbm-141" value="Thanh toán" style="ellipse;whiteSpace=wrap;html=1;" parent="1" vertex="1">
          <mxGeometry x="170" y="1090" width="120" height="50" as="geometry" />
        </mxCell>
        <mxCell id="SgWpKH_g_rVidPouxBbm-143" value="extends" style="endArrow=open;endSize=12;dashed=1;html=1;rounded=0;exitX=1;exitY=0.5;exitDx=0;exitDy=0;entryX=0;entryY=0.5;entryDx=0;entryDy=0;" parent="1" source="SgWpKH_g_rVidPouxBbm-131" target="SgWpKH_g_rVidPouxBbm-141" edge="1">
          <mxGeometry width="160" relative="1" as="geometry">
            <mxPoint x="220" y="940" as="sourcePoint" />
            <mxPoint x="26" y="1199" as="targetPoint" />
          </mxGeometry>
        </mxCell>
        <mxCell id="SgWpKH_g_rVidPouxBbm-144" value="Theo dõi đơn hàng" style="ellipse;whiteSpace=wrap;html=1;" parent="1" vertex="1">
          <mxGeometry x="365" y="1090" width="120" height="50" as="geometry" />
        </mxCell>
        <mxCell id="SgWpKH_g_rVidPouxBbm-145" value="extends" style="endArrow=open;endSize=12;dashed=1;html=1;rounded=0;exitX=1;exitY=0.5;exitDx=0;exitDy=0;entryX=0;entryY=0.5;entryDx=0;entryDy=0;" parent="1" source="SgWpKH_g_rVidPouxBbm-141" target="SgWpKH_g_rVidPouxBbm-144" edge="1">
          <mxGeometry width="160" relative="1" as="geometry">
            <mxPoint x="230" y="950" as="sourcePoint" />
            <mxPoint x="36" y="1209" as="targetPoint" />
          </mxGeometry>
        </mxCell>
        <mxCell id="SgWpKH_g_rVidPouxBbm-146" value="Đánh giá sản phẩm" style="ellipse;whiteSpace=wrap;html=1;" parent="1" vertex="1">
          <mxGeometry x="210" y="1010" width="120" height="50" as="geometry" />
        </mxCell>
        <mxCell id="SgWpKH_g_rVidPouxBbm-147" value="extends" style="endArrow=open;endSize=12;dashed=1;html=1;rounded=0;exitX=0.5;exitY=0;exitDx=0;exitDy=0;entryX=1;entryY=0.5;entryDx=0;entryDy=0;" parent="1" source="SgWpKH_g_rVidPouxBbm-144" target="SgWpKH_g_rVidPouxBbm-146" edge="1">
          <mxGeometry width="160" relative="1" as="geometry">
            <mxPoint x="740" y="910" as="sourcePoint" />
            <mxPoint x="361" y="1039" as="targetPoint" />
          </mxGeometry>
        </mxCell>
        <mxCell id="SgWpKH_g_rVidPouxBbm-149" value="extends" style="endArrow=open;endSize=12;dashed=1;html=1;rounded=0;exitX=0;exitY=0;exitDx=0;exitDy=0;entryX=1;entryY=1;entryDx=0;entryDy=0;" parent="1" source="SgWpKH_g_rVidPouxBbm-80" target="SgWpKH_g_rVidPouxBbm-114" edge="1">
          <mxGeometry width="160" relative="1" as="geometry">
            <mxPoint x="435" y="1100" as="sourcePoint" />
            <mxPoint x="345" y="1050" as="targetPoint" />
          </mxGeometry>
        </mxCell>
        <mxCell id="SgWpKH_g_rVidPouxBbm-151" value="Xem lịch sử đơn hàng" style="ellipse;whiteSpace=wrap;html=1;" parent="1" vertex="1">
          <mxGeometry x="410" y="880" width="120" height="50" as="geometry" />
        </mxCell>
        <mxCell id="SgWpKH_g_rVidPouxBbm-152" value="extends" style="endArrow=open;endSize=12;dashed=1;html=1;rounded=0;exitX=1;exitY=0;exitDx=0;exitDy=0;" parent="1" source="SgWpKH_g_rVidPouxBbm-144" target="SgWpKH_g_rVidPouxBbm-151" edge="1">
          <mxGeometry width="160" relative="1" as="geometry">
            <mxPoint x="445" y="1110" as="sourcePoint" />
            <mxPoint x="355" y="1060" as="targetPoint" />
          </mxGeometry>
        </mxCell>
        <mxCell id="SgWpKH_g_rVidPouxBbm-153" value="extends" style="endArrow=open;endSize=12;dashed=1;html=1;rounded=0;exitX=1;exitY=0.5;exitDx=0;exitDy=0;entryX=0;entryY=0.5;entryDx=0;entryDy=0;" parent="1" source="SgWpKH_g_rVidPouxBbm-80" target="SgWpKH_g_rVidPouxBbm-151" edge="1">
          <mxGeometry width="160" relative="1" as="geometry">
            <mxPoint x="455" y="1120" as="sourcePoint" />
            <mxPoint x="365" y="1070" as="targetPoint" />
          </mxGeometry>
        </mxCell>
        <mxCell id="7XiUPh6KSyojpYnyb0MD-2" value="" style="endArrow=classic;html=1;rounded=0;entryX=0;entryY=0.5;entryDx=0;entryDy=0;" parent="1" target="SgWpKH_g_rVidPouxBbm-42" edge="1">
          <mxGeometry width="50" height="50" relative="1" as="geometry">
            <mxPoint x="580" y="285" as="sourcePoint" />
            <mxPoint x="590" y="230" as="targetPoint" />
          </mxGeometry>
        </mxCell>
        <mxCell id="7XiUPh6KSyojpYnyb0MD-7" value="CURD" style="ellipse;whiteSpace=wrap;html=1;" parent="1" vertex="1">
          <mxGeometry x="410" y="90" width="110" height="40" as="geometry" />
        </mxCell>
        <mxCell id="7XiUPh6KSyojpYnyb0MD-8" value="CRUD" style="ellipse;whiteSpace=wrap;html=1;" parent="1" vertex="1">
          <mxGeometry x="390" y="-20" width="110" height="40" as="geometry" />
        </mxCell>
        <mxCell id="7XiUPh6KSyojpYnyb0MD-19" style="edgeStyle=orthogonalEdgeStyle;rounded=0;orthogonalLoop=1;jettySize=auto;html=1;dashed=1;" parent="1" source="7XiUPh6KSyojpYnyb0MD-15" target="7XiUPh6KSyojpYnyb0MD-18" edge="1">
          <mxGeometry relative="1" as="geometry" />
        </mxCell>
        <mxCell id="7XiUPh6KSyojpYnyb0MD-20" value="extend" style="edgeLabel;html=1;align=center;verticalAlign=middle;resizable=0;points=[];" parent="7XiUPh6KSyojpYnyb0MD-19" vertex="1" connectable="0">
          <mxGeometry x="0.04" y="2" relative="1" as="geometry">
            <mxPoint as="offset" />
          </mxGeometry>
        </mxCell>
        <mxCell id="7XiUPh6KSyojpYnyb0MD-15" value="Quản lý thương hiệu" style="ellipse;whiteSpace=wrap;html=1;" parent="1" vertex="1">
          <mxGeometry x="155" y="440" width="130" height="50" as="geometry" />
        </mxCell>
        <mxCell id="7XiUPh6KSyojpYnyb0MD-18" value="CRUD" style="ellipse;whiteSpace=wrap;html=1;" parent="1" vertex="1">
          <mxGeometry x="165" y="530" width="110" height="40" as="geometry" />
        </mxCell>
        <mxCell id="7XiUPh6KSyojpYnyb0MD-24" style="edgeStyle=orthogonalEdgeStyle;rounded=0;orthogonalLoop=1;jettySize=auto;html=1;entryX=0.5;entryY=1;entryDx=0;entryDy=0;dashed=1;" parent="1" source="7XiUPh6KSyojpYnyb0MD-21" target="7XiUPh6KSyojpYnyb0MD-23" edge="1">
          <mxGeometry relative="1" as="geometry" />
        </mxCell>
        <mxCell id="7XiUPh6KSyojpYnyb0MD-25" value="extend" style="edgeLabel;html=1;align=center;verticalAlign=middle;resizable=0;points=[];" parent="7XiUPh6KSyojpYnyb0MD-24" vertex="1" connectable="0">
          <mxGeometry x="-0.2565" y="2" relative="1" as="geometry">
            <mxPoint as="offset" />
          </mxGeometry>
        </mxCell>
        <mxCell id="7XiUPh6KSyojpYnyb0MD-21" value="Quản lý thuộc tính" style="ellipse;whiteSpace=wrap;html=1;" parent="1" vertex="1">
          <mxGeometry x="660" y="70" width="110" height="40" as="geometry" />
        </mxCell>
        <mxCell id="7XiUPh6KSyojpYnyb0MD-23" value="CRUD" style="ellipse;whiteSpace=wrap;html=1;" parent="1" vertex="1">
          <mxGeometry x="660" y="-20" width="110" height="40" as="geometry" />
        </mxCell>
        <mxCell id="7XiUPh6KSyojpYnyb0MD-31" style="edgeStyle=orthogonalEdgeStyle;rounded=0;orthogonalLoop=1;jettySize=auto;html=1;dashed=1;" parent="1" source="7XiUPh6KSyojpYnyb0MD-28" target="7XiUPh6KSyojpYnyb0MD-29" edge="1">
          <mxGeometry relative="1" as="geometry" />
        </mxCell>
        <mxCell id="7XiUPh6KSyojpYnyb0MD-34" value="extend" style="edgeLabel;html=1;align=center;verticalAlign=middle;resizable=0;points=[];" parent="7XiUPh6KSyojpYnyb0MD-31" vertex="1" connectable="0">
          <mxGeometry x="-0.1559" y="-3" relative="1" as="geometry">
            <mxPoint as="offset" />
          </mxGeometry>
        </mxCell>
        <mxCell id="7XiUPh6KSyojpYnyb0MD-28" value="Quản lý bài viết" style="ellipse;whiteSpace=wrap;html=1;" parent="1" vertex="1">
          <mxGeometry x="310" y="350" width="110" height="50" as="geometry" />
        </mxCell>
        <mxCell id="7XiUPh6KSyojpYnyb0MD-29" value="CRUD" style="ellipse;whiteSpace=wrap;html=1;" parent="1" vertex="1">
          <mxGeometry x="310" y="480" width="110" height="40" as="geometry" />
        </mxCell>
        <mxCell id="7XiUPh6KSyojpYnyb0MD-35" style="edgeStyle=orthogonalEdgeStyle;rounded=0;orthogonalLoop=1;jettySize=auto;html=1;dashed=1;" parent="1" source="7XiUPh6KSyojpYnyb0MD-37" target="7XiUPh6KSyojpYnyb0MD-38" edge="1">
          <mxGeometry relative="1" as="geometry" />
        </mxCell>
        <mxCell id="7XiUPh6KSyojpYnyb0MD-36" value="extend" style="edgeLabel;html=1;align=center;verticalAlign=middle;resizable=0;points=[];" parent="7XiUPh6KSyojpYnyb0MD-35" vertex="1" connectable="0">
          <mxGeometry x="-0.1559" y="-3" relative="1" as="geometry">
            <mxPoint as="offset" />
          </mxGeometry>
        </mxCell>
        <mxCell id="7XiUPh6KSyojpYnyb0MD-37" value="Quản lý giảm giá" style="ellipse;whiteSpace=wrap;html=1;" parent="1" vertex="1">
          <mxGeometry x="440" y="340" width="110" height="50" as="geometry" />
        </mxCell>
        <mxCell id="7XiUPh6KSyojpYnyb0MD-38" value="CRUD" style="ellipse;whiteSpace=wrap;html=1;" parent="1" vertex="1">
          <mxGeometry x="440" y="470" width="110" height="40" as="geometry" />
        </mxCell>
        <mxCell id="7XiUPh6KSyojpYnyb0MD-48" value="" style="shape=or;whiteSpace=wrap;html=1;rotation=-90;" parent="1" vertex="1">
          <mxGeometry x="952.5" y="907.5" width="25" height="50" as="geometry" />
        </mxCell>
        <mxCell id="7XiUPh6KSyojpYnyb0MD-49" value="" style="ellipse;whiteSpace=wrap;html=1;aspect=fixed;" parent="1" vertex="1">
          <mxGeometry x="950" y="900" width="30" height="30" as="geometry" />
        </mxCell>
        <mxCell id="7XiUPh6KSyojpYnyb0MD-50" value="Seller" style="rounded=0;whiteSpace=wrap;html=1;" parent="1" vertex="1">
          <mxGeometry x="930" y="950" width="70" height="30" as="geometry" />
        </mxCell>
        <mxCell id="7XiUPh6KSyojpYnyb0MD-51" style="edgeStyle=orthogonalEdgeStyle;rounded=0;orthogonalLoop=1;jettySize=auto;html=1;entryX=0;entryY=0.5;entryDx=0;entryDy=0;" parent="1" target="7XiUPh6KSyojpYnyb0MD-64" edge="1">
          <mxGeometry relative="1" as="geometry">
            <mxPoint x="1000" y="965" as="sourcePoint" />
          </mxGeometry>
        </mxCell>
        <mxCell id="7XiUPh6KSyojpYnyb0MD-55" style="edgeStyle=orthogonalEdgeStyle;rounded=0;orthogonalLoop=1;jettySize=auto;html=1;entryX=0.5;entryY=1;entryDx=0;entryDy=0;" parent="1" source="7XiUPh6KSyojpYnyb0MD-64" target="7XiUPh6KSyojpYnyb0MD-80" edge="1">
          <mxGeometry relative="1" as="geometry" />
        </mxCell>
        <mxCell id="7XiUPh6KSyojpYnyb0MD-56" style="edgeStyle=orthogonalEdgeStyle;rounded=0;orthogonalLoop=1;jettySize=auto;html=1;" parent="1" source="7XiUPh6KSyojpYnyb0MD-64" target="7XiUPh6KSyojpYnyb0MD-90" edge="1">
          <mxGeometry relative="1" as="geometry" />
        </mxCell>
        <mxCell id="7XiUPh6KSyojpYnyb0MD-57" value="include" style="edgeLabel;html=1;align=center;verticalAlign=middle;resizable=0;points=[];" parent="7XiUPh6KSyojpYnyb0MD-56" vertex="1" connectable="0">
          <mxGeometry x="0.0182" y="-1" relative="1" as="geometry">
            <mxPoint as="offset" />
          </mxGeometry>
        </mxCell>
        <mxCell id="7XiUPh6KSyojpYnyb0MD-58" style="edgeStyle=orthogonalEdgeStyle;rounded=0;orthogonalLoop=1;jettySize=auto;html=1;" parent="1" source="7XiUPh6KSyojpYnyb0MD-64" target="7XiUPh6KSyojpYnyb0MD-97" edge="1">
          <mxGeometry relative="1" as="geometry" />
        </mxCell>
        <mxCell id="7XiUPh6KSyojpYnyb0MD-59" value="include" style="edgeLabel;html=1;align=center;verticalAlign=middle;resizable=0;points=[];" parent="7XiUPh6KSyojpYnyb0MD-58" vertex="1" connectable="0">
          <mxGeometry x="-0.8768" y="2" relative="1" as="geometry">
            <mxPoint x="37" y="2" as="offset" />
          </mxGeometry>
        </mxCell>
        <mxCell id="7XiUPh6KSyojpYnyb0MD-60" style="edgeStyle=orthogonalEdgeStyle;rounded=0;orthogonalLoop=1;jettySize=auto;html=1;" parent="1" source="7XiUPh6KSyojpYnyb0MD-64" target="7XiUPh6KSyojpYnyb0MD-105" edge="1">
          <mxGeometry relative="1" as="geometry" />
        </mxCell>
        <mxCell id="7XiUPh6KSyojpYnyb0MD-61" value="include" style="edgeLabel;html=1;align=center;verticalAlign=middle;resizable=0;points=[];" parent="7XiUPh6KSyojpYnyb0MD-60" vertex="1" connectable="0">
          <mxGeometry x="-0.0815" y="2" relative="1" as="geometry">
            <mxPoint as="offset" />
          </mxGeometry>
        </mxCell>
        <mxCell id="7XiUPh6KSyojpYnyb0MD-62" style="edgeStyle=orthogonalEdgeStyle;rounded=0;orthogonalLoop=1;jettySize=auto;html=1;entryX=0.5;entryY=0;entryDx=0;entryDy=0;" parent="1" target="7XiUPh6KSyojpYnyb0MD-113" edge="1">
          <mxGeometry relative="1" as="geometry">
            <mxPoint x="1255" y="965" as="sourcePoint" />
          </mxGeometry>
        </mxCell>
        <mxCell id="7XiUPh6KSyojpYnyb0MD-63" style="edgeStyle=orthogonalEdgeStyle;rounded=0;orthogonalLoop=1;jettySize=auto;html=1;entryX=0.5;entryY=0;entryDx=0;entryDy=0;" parent="1" target="7XiUPh6KSyojpYnyb0MD-117" edge="1">
          <mxGeometry relative="1" as="geometry">
            <mxPoint x="1385" y="965" as="sourcePoint" />
          </mxGeometry>
        </mxCell>
        <mxCell id="7XiUPh6KSyojpYnyb0MD-64" value="Đăng nhập" style="ellipse;whiteSpace=wrap;html=1;" parent="1" vertex="1">
          <mxGeometry x="1060" y="940" width="100" height="50" as="geometry" />
        </mxCell>
        <mxCell id="7XiUPh6KSyojpYnyb0MD-75" style="edgeStyle=orthogonalEdgeStyle;rounded=0;orthogonalLoop=1;jettySize=auto;html=1;dashed=1;" parent="1" source="7XiUPh6KSyojpYnyb0MD-80" target="7XiUPh6KSyojpYnyb0MD-81" edge="1">
          <mxGeometry relative="1" as="geometry" />
        </mxCell>
        <mxCell id="7XiUPh6KSyojpYnyb0MD-76" value="extend" style="edgeLabel;html=1;align=center;verticalAlign=middle;resizable=0;points=[];" parent="7XiUPh6KSyojpYnyb0MD-75" vertex="1" connectable="0">
          <mxGeometry x="-0.4724" y="2" relative="1" as="geometry">
            <mxPoint as="offset" />
          </mxGeometry>
        </mxCell>
        <mxCell id="7XiUPh6KSyojpYnyb0MD-77" style="edgeStyle=orthogonalEdgeStyle;rounded=0;orthogonalLoop=1;jettySize=auto;html=1;dashed=1;" parent="1" source="7XiUPh6KSyojpYnyb0MD-80" target="7XiUPh6KSyojpYnyb0MD-101" edge="1">
          <mxGeometry relative="1" as="geometry" />
        </mxCell>
        <mxCell id="7XiUPh6KSyojpYnyb0MD-78" value="extend" style="edgeLabel;html=1;align=center;verticalAlign=middle;resizable=0;points=[];" parent="7XiUPh6KSyojpYnyb0MD-77" vertex="1" connectable="0">
          <mxGeometry x="-0.1061" y="-2" relative="1" as="geometry">
            <mxPoint as="offset" />
          </mxGeometry>
        </mxCell>
        <mxCell id="7XiUPh6KSyojpYnyb0MD-79" style="edgeStyle=orthogonalEdgeStyle;rounded=0;orthogonalLoop=1;jettySize=auto;html=1;entryX=0.5;entryY=1;entryDx=0;entryDy=0;dashed=1;exitX=1;exitY=0.5;exitDx=0;exitDy=0;" parent="1" source="7XiUPh6KSyojpYnyb0MD-80" target="7XiUPh6KSyojpYnyb0MD-109" edge="1">
          <mxGeometry relative="1" as="geometry">
            <mxPoint x="1490" y="888" as="sourcePoint" />
          </mxGeometry>
        </mxCell>
        <mxCell id="7XiUPh6KSyojpYnyb0MD-80" value="Quản lý sản phẩm" style="ellipse;whiteSpace=wrap;html=1;" parent="1" vertex="1">
          <mxGeometry x="1300" y="867.5" width="110" height="40" as="geometry" />
        </mxCell>
        <mxCell id="7XiUPh6KSyojpYnyb0MD-81" value="Thông kê" style="ellipse;whiteSpace=wrap;html=1;" parent="1" vertex="1">
          <mxGeometry x="1300" y="750" width="110" height="40" as="geometry" />
        </mxCell>
        <mxCell id="7XiUPh6KSyojpYnyb0MD-86" style="edgeStyle=orthogonalEdgeStyle;rounded=0;orthogonalLoop=1;jettySize=auto;html=1;dashed=1;" parent="1" source="7XiUPh6KSyojpYnyb0MD-90" target="7XiUPh6KSyojpYnyb0MD-91" edge="1">
          <mxGeometry relative="1" as="geometry" />
        </mxCell>
        <mxCell id="7XiUPh6KSyojpYnyb0MD-87" value="extend" style="edgeLabel;html=1;align=center;verticalAlign=middle;resizable=0;points=[];" parent="7XiUPh6KSyojpYnyb0MD-86" vertex="1" connectable="0">
          <mxGeometry x="-0.2109" relative="1" as="geometry">
            <mxPoint as="offset" />
          </mxGeometry>
        </mxCell>
        <mxCell id="7XiUPh6KSyojpYnyb0MD-88" style="edgeStyle=orthogonalEdgeStyle;rounded=0;orthogonalLoop=1;jettySize=auto;html=1;dashed=1;" parent="1" source="7XiUPh6KSyojpYnyb0MD-90" target="7XiUPh6KSyojpYnyb0MD-92" edge="1">
          <mxGeometry relative="1" as="geometry" />
        </mxCell>
        <mxCell id="7XiUPh6KSyojpYnyb0MD-89" value="extend" style="edgeLabel;html=1;align=center;verticalAlign=middle;resizable=0;points=[];" parent="7XiUPh6KSyojpYnyb0MD-88" vertex="1" connectable="0">
          <mxGeometry x="-0.1627" y="1" relative="1" as="geometry">
            <mxPoint as="offset" />
          </mxGeometry>
        </mxCell>
        <mxCell id="7XiUPh6KSyojpYnyb0MD-90" value="Cửa hàng" style="ellipse;whiteSpace=wrap;html=1;" parent="1" vertex="1">
          <mxGeometry x="940" y="1050" width="130" height="50" as="geometry" />
        </mxCell>
        <mxCell id="7XiUPh6KSyojpYnyb0MD-91" value="Bật / tắt layout" style="ellipse;whiteSpace=wrap;html=1;" parent="1" vertex="1">
          <mxGeometry x="770" y="1000" width="130" height="50" as="geometry" />
        </mxCell>
        <mxCell id="7XiUPh6KSyojpYnyb0MD-92" value="CRUD" style="ellipse;whiteSpace=wrap;html=1;" parent="1" vertex="1">
          <mxGeometry x="770" y="1090" width="130" height="50" as="geometry" />
        </mxCell>
        <mxCell id="7XiUPh6KSyojpYnyb0MD-93" style="edgeStyle=orthogonalEdgeStyle;rounded=0;orthogonalLoop=1;jettySize=auto;html=1;dashed=1;" parent="1" source="7XiUPh6KSyojpYnyb0MD-97" target="7XiUPh6KSyojpYnyb0MD-98" edge="1">
          <mxGeometry relative="1" as="geometry" />
        </mxCell>
        <mxCell id="7XiUPh6KSyojpYnyb0MD-94" value="extend" style="edgeLabel;html=1;align=center;verticalAlign=middle;resizable=0;points=[];" parent="7XiUPh6KSyojpYnyb0MD-93" vertex="1" connectable="0">
          <mxGeometry x="-0.0044" y="1" relative="1" as="geometry">
            <mxPoint as="offset" />
          </mxGeometry>
        </mxCell>
        <mxCell id="7XiUPh6KSyojpYnyb0MD-119" style="edgeStyle=orthogonalEdgeStyle;rounded=0;orthogonalLoop=1;jettySize=auto;html=1;dashed=1;" parent="1" source="7XiUPh6KSyojpYnyb0MD-97" target="7XiUPh6KSyojpYnyb0MD-99" edge="1">
          <mxGeometry relative="1" as="geometry" />
        </mxCell>
        <mxCell id="7XiUPh6KSyojpYnyb0MD-120" value="extend" style="edgeLabel;html=1;align=center;verticalAlign=middle;resizable=0;points=[];" parent="7XiUPh6KSyojpYnyb0MD-119" vertex="1" connectable="0">
          <mxGeometry x="-0.0437" y="4" relative="1" as="geometry">
            <mxPoint as="offset" />
          </mxGeometry>
        </mxCell>
        <mxCell id="7XiUPh6KSyojpYnyb0MD-97" value="Quản lý order" style="ellipse;whiteSpace=wrap;html=1;" parent="1" vertex="1">
          <mxGeometry x="1460" y="940" width="130" height="50" as="geometry" />
        </mxCell>
        <mxCell id="7XiUPh6KSyojpYnyb0MD-98" value="Thực hiện order" style="ellipse;whiteSpace=wrap;html=1;" parent="1" vertex="1">
          <mxGeometry x="1620" y="860" width="130" height="50" as="geometry" />
        </mxCell>
        <mxCell id="7XiUPh6KSyojpYnyb0MD-99" value="Theo dõi order" style="ellipse;whiteSpace=wrap;html=1;" parent="1" vertex="1">
          <mxGeometry x="1590" y="1050" width="130" height="50" as="geometry" />
        </mxCell>
        <mxCell id="7XiUPh6KSyojpYnyb0MD-101" value="CURD" style="ellipse;whiteSpace=wrap;html=1;" parent="1" vertex="1">
          <mxGeometry x="1120" y="870" width="110" height="40" as="geometry" />
        </mxCell>
        <mxCell id="7XiUPh6KSyojpYnyb0MD-103" style="edgeStyle=orthogonalEdgeStyle;rounded=0;orthogonalLoop=1;jettySize=auto;html=1;dashed=1;" parent="1" source="7XiUPh6KSyojpYnyb0MD-105" target="7XiUPh6KSyojpYnyb0MD-106" edge="1">
          <mxGeometry relative="1" as="geometry" />
        </mxCell>
        <mxCell id="7XiUPh6KSyojpYnyb0MD-104" value="extend" style="edgeLabel;html=1;align=center;verticalAlign=middle;resizable=0;points=[];" parent="7XiUPh6KSyojpYnyb0MD-103" vertex="1" connectable="0">
          <mxGeometry x="0.04" y="2" relative="1" as="geometry">
            <mxPoint as="offset" />
          </mxGeometry>
        </mxCell>
        <mxCell id="7XiUPh6KSyojpYnyb0MD-105" value="Quản lý thương hiệu" style="ellipse;whiteSpace=wrap;html=1;" parent="1" vertex="1">
          <mxGeometry x="1045" y="1120" width="130" height="50" as="geometry" />
        </mxCell>
        <mxCell id="7XiUPh6KSyojpYnyb0MD-106" value="CRUD" style="ellipse;whiteSpace=wrap;html=1;" parent="1" vertex="1">
          <mxGeometry x="1055" y="1210" width="110" height="40" as="geometry" />
        </mxCell>
        <mxCell id="7XiUPh6KSyojpYnyb0MD-107" style="edgeStyle=orthogonalEdgeStyle;rounded=0;orthogonalLoop=1;jettySize=auto;html=1;entryX=0.5;entryY=1;entryDx=0;entryDy=0;dashed=1;" parent="1" source="7XiUPh6KSyojpYnyb0MD-109" target="7XiUPh6KSyojpYnyb0MD-110" edge="1">
          <mxGeometry relative="1" as="geometry" />
        </mxCell>
        <mxCell id="7XiUPh6KSyojpYnyb0MD-108" value="extend" style="edgeLabel;html=1;align=center;verticalAlign=middle;resizable=0;points=[];" parent="7XiUPh6KSyojpYnyb0MD-107" vertex="1" connectable="0">
          <mxGeometry x="-0.2565" y="2" relative="1" as="geometry">
            <mxPoint as="offset" />
          </mxGeometry>
        </mxCell>
        <mxCell id="7XiUPh6KSyojpYnyb0MD-109" value="Quản lý thuộc tính" style="ellipse;whiteSpace=wrap;html=1;" parent="1" vertex="1">
          <mxGeometry x="1430" y="800" width="110" height="40" as="geometry" />
        </mxCell>
        <mxCell id="7XiUPh6KSyojpYnyb0MD-110" value="CRUD" style="ellipse;whiteSpace=wrap;html=1;" parent="1" vertex="1">
          <mxGeometry x="1430" y="710" width="110" height="40" as="geometry" />
        </mxCell>
        <mxCell id="7XiUPh6KSyojpYnyb0MD-111" style="edgeStyle=orthogonalEdgeStyle;rounded=0;orthogonalLoop=1;jettySize=auto;html=1;dashed=1;" parent="1" source="7XiUPh6KSyojpYnyb0MD-113" target="7XiUPh6KSyojpYnyb0MD-114" edge="1">
          <mxGeometry relative="1" as="geometry" />
        </mxCell>
        <mxCell id="7XiUPh6KSyojpYnyb0MD-112" value="extend" style="edgeLabel;html=1;align=center;verticalAlign=middle;resizable=0;points=[];" parent="7XiUPh6KSyojpYnyb0MD-111" vertex="1" connectable="0">
          <mxGeometry x="-0.1559" y="-3" relative="1" as="geometry">
            <mxPoint as="offset" />
          </mxGeometry>
        </mxCell>
        <mxCell id="7XiUPh6KSyojpYnyb0MD-113" value="Quản lý bài viết" style="ellipse;whiteSpace=wrap;html=1;" parent="1" vertex="1">
          <mxGeometry x="1200" y="1030" width="110" height="50" as="geometry" />
        </mxCell>
        <mxCell id="7XiUPh6KSyojpYnyb0MD-114" value="CRUD" style="ellipse;whiteSpace=wrap;html=1;" parent="1" vertex="1">
          <mxGeometry x="1300" y="1140" width="110" height="40" as="geometry" />
        </mxCell>
        <mxCell id="7XiUPh6KSyojpYnyb0MD-115" style="edgeStyle=orthogonalEdgeStyle;rounded=0;orthogonalLoop=1;jettySize=auto;html=1;dashed=1;" parent="1" source="7XiUPh6KSyojpYnyb0MD-117" target="7XiUPh6KSyojpYnyb0MD-118" edge="1">
          <mxGeometry relative="1" as="geometry" />
        </mxCell>
        <mxCell id="7XiUPh6KSyojpYnyb0MD-116" value="extend" style="edgeLabel;html=1;align=center;verticalAlign=middle;resizable=0;points=[];" parent="7XiUPh6KSyojpYnyb0MD-115" vertex="1" connectable="0">
          <mxGeometry x="-0.1559" y="-3" relative="1" as="geometry">
            <mxPoint as="offset" />
          </mxGeometry>
        </mxCell>
        <mxCell id="7XiUPh6KSyojpYnyb0MD-117" value="Quản lý giảm giá" style="ellipse;whiteSpace=wrap;html=1;" parent="1" vertex="1">
          <mxGeometry x="1330" y="1020" width="110" height="50" as="geometry" />
        </mxCell>
        <mxCell id="7XiUPh6KSyojpYnyb0MD-118" value="CRUD" style="ellipse;whiteSpace=wrap;html=1;" parent="1" vertex="1">
          <mxGeometry x="1440" y="1120" width="110" height="40" as="geometry" />
        </mxCell>
        <mxCell id="7XiUPh6KSyojpYnyb0MD-124" style="edgeStyle=orthogonalEdgeStyle;rounded=0;orthogonalLoop=1;jettySize=auto;html=1;dashed=1;" parent="1" source="7XiUPh6KSyojpYnyb0MD-121" target="7XiUPh6KSyojpYnyb0MD-122" edge="1">
          <mxGeometry relative="1" as="geometry" />
        </mxCell>
        <mxCell id="7XiUPh6KSyojpYnyb0MD-121" value="Xem bài viết" style="ellipse;whiteSpace=wrap;html=1;" parent="1" vertex="1">
          <mxGeometry x="-280" y="790" width="120" height="50" as="geometry" />
        </mxCell>
        <mxCell id="7XiUPh6KSyojpYnyb0MD-122" value="Đánh giá" style="ellipse;whiteSpace=wrap;html=1;" parent="1" vertex="1">
          <mxGeometry x="-450" y="790" width="120" height="50" as="geometry" />
        </mxCell>
      </root>
    </mxGraphModel>
  </diagram>
</mxfile>
